<svg version="1.1" id="Calque_1" xmlns="http://www.w3.org/2000/svg" x="0" y="0" viewBox="0 0 696.1 331.1" xml:space="preserve"><style>.st0{fill:#020000;stroke:#020000;stroke-width:3}.st1{fill:#00aeef}.st3{fill:#fff;stroke:#fff;stroke-width:.5}.st4{fill:#010101}.st5{fill:#029ed4}</style><path class="st0" d="M176.5 36.7h33v14.1c10.8-11.4 20.7-16.2 33.9-16.2 21.8 0 36.4 13.9 36.4 35.2v68.8h-33.1V78.9c.1-2.9-.3-5.8-1.2-8.5-1.6-5.9-7.5-10.1-14.4-10.1-7.5 0-14.4 4-21.5 12.2v66.1h-33.1V36.7zM303.7 1.6h33.1v78.6l39.6-43.5h39L371.1 83l50 55.5h-41.2l-43.3-50.9v50.9h-32.9V1.6z"/><path class="st0" d="M471.8 54c11.2 0 18.7 7.2 19.9 19.2h-41.3c2.5-12 10.6-19.2 21.4-19.2zm49 37.2V87c0-33.8-19.3-54.3-51-54.3-31.3 0-53.9 21.7-53.9 52.8 0 32.1 23.2 53.8 57.5 53.8 15.7 0 28.9-4 44.3-13.3v-21.5c-14.2 8.2-26 12-37 12-17.3 0-28.9-9.5-30.9-25.3h71z"/><path class="st1" d="M0 128.5h165.5v11.3H0zM530.4 128.5h165.5v11.3H530.4zM.4 217.3h695.5v11.3H.4z"/><path fill="#020000" d="M0 147h695.9v62.8H0z"/><path class="st3" d="M24.7 159.5v36.1h-4.5v-36.1h4.5zM50.3 195.6v-36.1h4.8l11 18.3c2.3 3.8 4.4 7.7 6.2 11.7h.1a171 171 0 01-.5-14.8v-15.1h4.2v36.1h-4.5l-10.9-18.3c-2.4-3.9-4.5-7.9-6.4-12.1l-.2.1c.3 4.6.4 8.9.4 14.9v15.4l-4.2-.1zM101.2 189.9c2.4 1.5 5.2 2.3 8 2.4 4.6 0 7.2-2.5 7.2-6.1 0-3.4-1.8-5.3-6.5-7.2-5.6-2.1-9.1-5.1-9.1-10.2 0-5.6 4.4-9.8 11.1-9.8 2.6-.1 5.3.5 7.6 1.8l-1.3 3.8c-2-1.1-4.2-1.7-6.5-1.7-4.7 0-6.5 3-6.5 5.4 0 3.4 2.1 5 6.8 7 5.8 2.4 8.8 5.3 8.8 10.6 0 5.6-3.9 10.4-12 10.4-3.1 0-6.1-.8-8.8-2.4l1.2-4zM151.4 163.4h-10.5v-4h25.5v4h-10.5v32.1h-4.5v-32.1zM188.1 160c2.8-.5 5.7-.8 8.5-.8 4.8 0 7.8.9 10 2.9a9.3 9.3 0 012.7 6.9 9.4 9.4 0 01-6.5 9.2v.2c2.7 1 4.2 3.5 5.1 7.3 1.1 5 1.9 8.5 2.6 9.9h-4.6c-.6-1.1-1.3-4.1-2.3-8.6-1-5-2.9-6.9-6.9-7h-4.2v15.6h-4.4V160zm4.4 16.4h4.6c4.8 0 7.8-2.7 7.8-6.9 0-4.7-3.2-6.7-7.9-6.8-1.5 0-3 .1-4.4.4v13.3h-.1zM237.9 159.5v21.4c0 8.1 3.4 11.5 8 11.5 5.1 0 8.4-3.5 8.4-11.5v-21.4h4.5v21c0 11.1-5.6 15.6-13 15.6-7 0-12.4-4.2-12.4-15.4v-21.2h4.5zM313.3 179.7c-.3-5-.6-11.1-.5-15.6h-.1c-1.2 4.2-2.6 8.8-4.4 13.7l-6.1 17.5h-3.4l-5.6-17.2c-1.6-5.1-3-9.7-4-14h-.1l-.7 16-.9 15.5h-4.2l2.4-36.1h5.7l5.9 17.4c1.4 4.4 2.6 8.4 3.5 12.2h.1c.9-3.6 2.1-7.6 3.6-12.2l6.1-17.4h5.7l2.1 36.1h-4.3l-.8-15.9zM361.1 178.6h-13.4v13h14.9v3.9h-19.4v-36.1h18.6v3.9h-14.1v11.4h13.4v3.9zM386.3 195.6v-36.1h4.9l11 18.3c2.3 3.8 4.4 7.7 6.2 11.7h.1a171 171 0 01-.5-14.8v-15.1h4.2v36.1h-4.5l-10.9-18.3c-2.4-3.9-4.5-7.9-6.4-12.1l-.1.1c.3 4.6.4 8.9.4 14.9v15.4l-4.4-.1zM444.3 163.4h-10.5v-4h25.5v4h-10.5v32.1h-4.5v-32.1zM482.7 184.2l-3.6 11.4h-4.6l11.7-36.1h5.4l11.7 36.1h-4.8l-3.7-11.4h-12.1zm11.3-3.6l-3.4-10.4c-.8-2.4-1.3-4.5-1.8-6.6h-.1l-1.7 6.5-3.4 10.4H494v.1zM528.9 163.4h-10.5v-4h25.5v4h-10.5v32.1h-4.5v-32.1zM570 159.5v36.1h-4.5v-36.1h4.5zM625.1 177.1c0 12.4-7.2 19-16 19-9.1 0-15.5-7.4-15.5-18.3 0-11.5 6.8-18.9 16-18.9 9.4 0 15.5 7.5 15.5 18.2zm-26.8.6c0 7.7 4 14.6 11 14.6s11-6.8 11-15c0-7.2-3.6-14.7-11-14.7s-11 7.2-11 15.1zM648.7 195.6v-36.1h4.8l11 18.3c2.3 3.8 4.4 7.7 6.2 11.7h.1a171 171 0 01-.5-14.8v-15.1h4.2v36.1H670l-10.9-18.3c-2.4-3.9-4.5-7.9-6.4-12.1l-.2.1c.3 4.6.4 8.9.4 14.9v15.4l-4.2-.1z"/><path class="st4" d="M224.7 330.1h-19.5c-5.8.1-10.7-1.9-15-5.7a25.9 25.9 0 01-8.4-13.7c-.2-1-.4-2.1-.4-3.2v-40.3c0-10.7 7.8-20.5 18.2-22.8 1.5-.3 3-.5 4.6-.5h40.2a23.7 23.7 0 0123.9 24.2v39.1a22 22 0 01-6.2 15.4 23.4 23.4 0 01-16.9 7.5h-20.5zm.1-4.4h19.9c4.7 0 8.8-1.4 12.4-4.4a18 18 0 007.1-14.6v-38.6a19.4 19.4 0 00-19.4-20h-40.4l-3.3.3a19.5 19.5 0 00-15.1 18.8v40.1c0 .9.1 1.8.3 2.6 1.1 4.6 3.7 8.4 7.3 11.4 3.4 2.9 7.2 4.4 11.7 4.3l19.5.1z"/><path class="st5" d="M206.7 295.3c-.1-1.6.1-3.1.4-4.7a42 42 0 011.2-4.8c.8-2.3 1.6-4.6 2.7-6.9a63.9 63.9 0 0116.4-20.8c.1-.1.3-.3.5-.2.3.1 0 .3 0 .5-.2 1.6-.5 3.1-.4 4.7.1 2.9.9 5.6 2.2 8.3 1.2 2.6 2.9 4.9 4.6 7.2l3.7 4.8c1.8 2.5 3.5 5 4.6 7.8a12 12 0 011.1 4.9v3c0 1.8-.5 3.4-1 5-.8 2.3-1.9 4.4-3.5 6.3a18 18 0 01-10.2 5.9l-2.6.2-3.8-.2c-1.8-.3-3.5-1-5.1-1.8-1.9-.9-3.5-2.1-5-3.5l-1.3-1.6a25 25 0 01-4.5-14.1z"/><g><path class="st4" d="M346.7 330.1h-19.4a21 21 0 01-14.9-5.7 25.9 25.9 0 01-8.4-13.7c-.2-1-.4-2.1-.4-3.1v-40.2c0-10.7 7.8-20.4 18.2-22.8 1.5-.3 3-.5 4.6-.5h40.1a23.6 23.6 0 0123.8 24.2v39c0 6-2.2 11-6.2 15.3a23.4 23.4 0 01-16.8 7.5h-20.6zm36.5-13.4c.9-1.3 1.6-2.7 2.1-4.2.5-1.6.7-3.2.7-4.8v-39.1a20 20 0 00-19.2-20.1h-40.3l-3.3.3c-8.4 1.6-15 9.8-15.1 18.6v40.1c0 1.8.4 3.5 1.2 5.1.5 1.5 1.3 2.8 2.2 4.1 1 1.6 2.3 3 3.7 4.3 3.5 3.1 7.4 4.8 12.2 4.8H367a19.1 19.1 0 0016.2-9.1z"/><path class="st5" d="M309.2 312.7c0-.5.3-.4.6-.4h9.3c.6 0 .8-.1.8-.8.5-7.4 3.6-13.5 9.3-18.3l.7-.7 14.5-22 .9-2.1 1.2-3.4c.3-.9.8-1.1 1.7-.8l4 1.4c.6.2.8.1 1-.4 1.2-2.9 2.9-5.5 5.7-7.2 2.2-1.3 4.4-1.8 6.9-.8a7 7 0 014 4.6c1.1 3 .8 6.1-.2 9.1-.2.6 0 .8.5.9l4.1 1.4c.9.3 1.2.9.9 1.8l-1.9 5.5c-.3.7-.2 1.5-.3 2.3l-1.4 14.4-.9 8.8c-.1.9.3 1.8.4 2.7.1 1 .3 2.1.3 3.2 0 .5.2.6.6.6h12.7c.2 0 .6-.2.7.2-.5 1.5-1.1 3-2.1 4.2h-71.8c-.9-1.4-1.7-2.8-2.2-4.2zm59.8-33.2c.1-.5-.3-.5-.5-.6l-9.3-3.1-10.4-3.5c-.5-.2-.7-.1-.9.4l-.6 1.2-12.9 19.5c-.3.5-.3.6.3.8l17.5 5.9 13.7 4.6c.3.1.6.4.7-.3l.5-5.7 1-10.3.9-8.9zm-1.6-13.8c-.1-1-.1-2.1-.5-3.1-1.1-3-3.6-3.9-6.4-2.2a11.9 11.9 0 00-4.7 5.9c-.2.4 0 .5.3.6l9.8 3.4c.4.2.6 0 .7-.4.6-1.3.8-2.7.8-4.2z"/></g><g><path d="M468.1 329.5c-6.2 0-12.4-.2-18.6.1-7.8.3-13.8-3.1-18.6-8.9a23 23 0 01-5.6-15.5c.2-12.6 0-25.2.1-37.8 0-10.3 7.3-19.8 17.1-22.5 1.7-.5 3.5-.7 5.3-.7H488c12.5 0 23 10.2 23.2 22.8.2 13.8.3 27.6-.1 41.4-.2 8.4-5 14.2-12 18.3-3.4 2-7.1 2.9-11 2.8h-20zm0-4.2h20.1c3 0 5.8-.6 8.3-2 6.1-3.3 10.4-8.1 10.5-15.3.3-13.6.2-27.2 0-40.9a19.3 19.3 0 00-19.3-18.9H448c-1.4 0-2.7.1-4 .4-8.2 2-14.4 9.9-14.5 18.5 0 12.5.1 25.1-.1 37.7-.1 4.9 1.5 9.1 4.5 12.9 3.9 4.9 8.8 7.8 15.4 7.5l18.8.1z" fill="#020202"/><path d="M476.7 306.4v15.5c0 2-.1 2-2 2h-12.9c-1.6 0-2-.4-2-2v-3-28.1c0-1.4-.5-1.8-1.7-1.7h-3.7c-.7 0-1.1-.2-1.1-.9l-.1-1.7c0-1.8.3-2.1 2.1-2.1h3c1.1 0 1.6-.5 1.6-1.6v-8c0-2 .3-3.9 1.9-5.4.6-.5.6-1.2.6-1.9a241 241 0 01.2-17c.1-.7.6-1.2.9-1.2s.7.6.7 1.1c-.1 3.8.6 7.2.9 11.1v4c0 .4-.1.9.5 1 .6 0 .6-.6.6-.9v-9.4c0-2.3.4-2.6 2.6-2.5 1.2 0 1.6.6 1.6 1.7v8.6c0 1.4.3 2.2 1.8 3.1 2.5 1.4 4.8 3.5 4.6 7.1-.2 2.9 0 5.8-.1 8.7 0 1.2.1 1.7 1.7 1.7h3.5c1.2 0 1.7.6 1.7 1.8-.1 3.4.3 2.9-2.7 2.9h-2.8c-1.1 0-1.4.4-1.4 1.4v15.7z" fill="#029ed5"/></g></svg>