<!-- Generated by IcoMoon.io -->
<svg version="1.1" xmlns="http://www.w3.org/2000/svg" width="26" height="32" viewBox="0 0 26 32">
<title>untitled4</title>
<path d="M2.331 32h-2.147c-0.101 0-0.184-0.083-0.184-0.184v-31.632c0-0.101 0.083-0.184 0.184-0.184h2.147c0.101 0 0.184 0.083 0.184 0.184v31.632c0 0.101-0.083 0.184-0.184 0.184zM26.258 32h-2.147c-0.101 0-0.184-0.083-0.184-0.184v-31.632c0-0.101 0.083-0.184 0.184-0.184h2.147c0.101 0 0.184 0.083 0.184 0.184v31.632c0 0.101-0.083 0.184-0.184 0.184zM26.442 0.184v2.147c0 0.101-0.083 0.184-0.184 0.184h-25.988c-0.101 0-0.184-0.083-0.184-0.184v-2.147c0-0.101 0.083-0.184 0.184-0.184h25.988c0.101 0 0.184 0.083 0.184 0.184zM26.442 29.669v2.147c0 0.101-0.083 0.184-0.184 0.184h-25.962c-0.101 0-0.184-0.083-0.184-0.184v-2.147c0-0.101 0.083-0.184 0.184-0.184h25.962c0.101 0 0.184 0.083 0.184 0.184zM8.018 11.537l1.242-1.52c0.064-0.078 0.052-0.195-0.026-0.259l-3.040-2.482c-0.078-0.064-0.195-0.052-0.259 0.026l-1.242 1.52c-0.064 0.078-0.052 0.195 0.026 0.259l3.040 2.483c0.078 0.063 0.195 0.052 0.259-0.028zM6.314 10.383l1.521 1.241c0.078 0.064 0.195 0.052 0.259-0.026l4.221-5.173c0.064-0.078 0.052-0.195-0.026-0.259l-1.521-1.241c-0.078-0.064-0.195-0.052-0.259 0.026l-4.221 5.173c-0.064 0.078-0.052 0.195 0.026 0.259zM21.594 9.564h-7.456c-0.101 0-0.184-0.083-0.184-0.184v-1.962c0-0.101 0.083-0.184 0.184-0.184h7.456c0.101 0 0.184 0.083 0.184 0.184v1.962c0 0.101-0.083 0.184-0.184 0.184zM8.068 19.324l1.242-1.52c0.064-0.078 0.052-0.195-0.026-0.259l-3.040-2.483c-0.078-0.064-0.195-0.052-0.259 0.026l-1.242 1.52c-0.064 0.078-0.052 0.195 0.026 0.259l3.040 2.482c0.078 0.066 0.195 0.054 0.259-0.025zM6.364 18.169l1.521 1.241c0.078 0.064 0.195 0.052 0.259-0.026l4.221-5.173c0.064-0.078 0.052-0.195-0.026-0.259l-1.521-1.241c-0.078-0.064-0.195-0.052-0.259 0.026l-4.221 5.173c-0.064 0.080-0.052 0.196 0.026 0.259zM21.643 17.314h-7.456c-0.101 0-0.184-0.083-0.184-0.184v-1.926c0-0.101 0.083-0.184 0.184-0.184h7.456c0.101 0 0.184 0.083 0.184 0.184v1.926c0 0.101-0.083 0.184-0.184 0.184zM8.080 27.023l1.242-1.52c0.064-0.078 0.052-0.195-0.026-0.259l-3.040-2.482c-0.078-0.064-0.195-0.052-0.259 0.026l-1.242 1.52c-0.064 0.078-0.052 0.195 0.026 0.259l3.040 2.482c0.080 0.064 0.196 0.054 0.259-0.026zM6.376 25.87l1.521 1.241c0.078 0.064 0.195 0.052 0.259-0.026l4.221-5.173c0.064-0.078 0.052-0.195-0.026-0.259l-1.521-1.241c-0.078-0.064-0.195-0.052-0.259 0.026l-4.221 5.173c-0.064 0.078-0.052 0.195 0.026 0.259zM21.655 25.172h-7.454c-0.101 0-0.184-0.083-0.184-0.184v-2.083c0-0.101 0.083-0.184 0.184-0.184h7.456c0.101 0 0.184 0.083 0.184 0.184v2.083c-0.002 0.101-0.084 0.184-0.186 0.184z"></path>
</svg>
