<svg id="Calque_1" data-name="Calque 1" xmlns="http://www.w3.org/2000/svg" viewBox="0 0 554.57 500.35"><defs><style>.cls-1{fill:#234088;}</style></defs><title>dashboard-version</title><path class="cls-1" d="M332.16,500.35c-7.6-2.07-15.19-4.16-22.8-6.19-8.55-2.28-12.6-8.71-11-17.34q3.42-18.37,6.68-36.79a2.67,2.67,0,0,0-.88-2.25,141.48,141.48,0,0,1-39.51-31.57,2.5,2.5,0,0,0-.53-.35l-30.63,14.51c-1.81.86-3.59,1.76-5.41,2.59a14,14,0,0,1-18.42-5.83q-5.38-9.21-10.71-18.45c-4-7-2.31-14.62,4.3-19.2q15.48-10.71,31-21.34c1.34-.92,1.7-1.66,1.18-3.28a136.55,136.55,0,0,1-6.36-47.75c.07-1.67-.51-2.18-1.9-2.67-11.84-4.11-23.65-8.3-35.48-12.46-8-2.82-11.52-10-9-18.19,1.94-6.42,3.7-12.9,5.46-19.37,2.23-8.18,8.44-12.34,16.79-10.88q18,3.12,35.83,6.58c2.19.42,3.35.18,4.46-2A133.17,133.17,0,0,1,273.68,211c.58-.54,1.13-1.12,1.85-1.83-2.94-6.22-5.89-12.48-8.86-18.73-2.74-5.78-5.51-11.53-8.22-17.31a14,14,0,0,1,5.87-18.62q9.1-5.33,18.24-10.59c7.06-4.07,14.74-2.35,19.38,4.36q10.69,15.49,21.35,31c.85,1.24,1.52,1.61,3.08,1.12a136.83,136.83,0,0,1,47.51-6.38c1.66.07,2.48-.33,3.08-2.05,4-11.7,8.21-23.35,12.3-35,2.85-8.13,9.66-11.78,18-9.55,6.78,1.82,13.57,3.64,20.34,5.53,7.87,2.19,11.94,8.93,10.4,16.91-2.48,12.86-4.89,25.73-7.36,38.78A140.08,140.08,0,0,1,472,220.49c4.06-1.87,8.09-3.72,12.12-5.59L508,203.8c7.27-3.37,14.73-1,18.77,5.93,3.49,6,6.93,12.05,10.41,18.07,4.1,7.09,2.45,14.74-4.26,19.39q-15.28,10.57-30.59,21.11c-.66.45-1.3.91-1.93,1.35,1.39,5.47,2.89,10.84,4.09,16.27a130.77,130.77,0,0,1,2.79,33.37c-.07,1.82.58,2.46,2.16,3,11.76,4.09,23.5,8.27,35.24,12.41,7.72,2.72,11.4,9.59,9.32,17.5q-2.76,10.43-5.53,20.84a13.87,13.87,0,0,1-16.29,10.34q-18.51-3.37-37-6.79c-1.6-.3-2.55-.05-3.39,1.57a134.68,134.68,0,0,1-29.23,38c-1.12,1-1.42,1.76-.71,3.21,5.46,11.29,10.81,22.62,16.24,33.92,3.44,7.16,1.2,14.82-5.68,18.85-6.27,3.68-12.59,7.28-18.9,10.89a14,14,0,0,1-19-4.35Q423.72,463.11,413,447.48c-.78-1.15-1.42-1.58-2.9-1.11a138.45,138.45,0,0,1-48.22,6.46c-.55,0-1.1,0-1.75,0-3.56,10.07-7.1,20.07-10.63,30.08-.88,2.48-1.71,5-2.61,7.46-2,5.42-5.74,8.7-11.5,9.6a3.67,3.67,0,0,0-.83.39Zm36-111a76.26,76.26,0,0,0,.38-152.52c-41.4-.27-76.18,32.74-76.53,75.19A76.13,76.13,0,0,0,368.15,389.39Z"/><path class="cls-1" d="M0,138.43c1.65-4.6,5-6.78,9.78-7.64,8.56-1.56,17-3.5,25.66-5.29a98.66,98.66,0,0,1,6.23-27.81,27.62,27.62,0,0,1,1.85-4.4c1.44-2.36.81-3.81-1.22-5.56C36.15,82.39,30.2,76.8,24.2,71.29c-4.24-3.89-4.73-9-1.29-13.51,3-4,6-7.88,9.05-11.79,3.57-4.59,8.69-5.44,13.56-2.28l23.09,15c3.7-2.66,7.12-5.6,11-7.78,6.1-3.44,12.45-6.45,18.78-9.46,1.49-.71,2.21-1.21,2.09-3.06-.55-8.69-.88-17.4-1.33-26.1-.28-5.54,2.89-9.64,8.4-10.4S118.47.56,124,0a9.28,9.28,0,0,1,10,7.8c1.65,8.3,3.3,16.61,4.82,24.94.37,2,1.05,2.83,3.29,3A90.5,90.5,0,0,1,172.67,44c1.46.68,2.27.64,3.4-.63,5.75-6.44,11.62-12.78,17.45-19.14,4-4.34,9-4.84,13.69-1.33q6,4.44,11.87,9c4.86,3.72,5.73,8.8,2.42,13.89-4.62,7.11-9.19,14.24-13.86,21.3-.88,1.33-1,2.15.1,3.49a93.71,93.71,0,0,1,15.64,27.6c.28.75.58,1.48.94,2.39,4-.19,8-.36,11.94-.56,5.51-.28,11-.63,16.52-.86s9.59,3.27,10.27,8.86c.54,4.45,1.14,8.88,1.77,13.31,1.06,7.46-1.61,11.28-9,12.86-8.05,1.71-16.07,3.52-24.13,5.14a2.3,2.3,0,0,0-2.19,2.5,92.17,92.17,0,0,1-8.32,31.33c-.7,1.53-.48,2.3.75,3.39,6.37,5.7,12.66,11.5,19,17.29,4.53,4.16,5,9.14,1.2,14.06q-4.22,5.53-8.46,11c-4.14,5.36-9,6.18-14.61,2.51l-23.09-14.94a98.12,98.12,0,0,1-31.72,18.24c.2,4.35.37,8.64.59,12.92.25,4.95.58,9.9.79,14.85.25,6.3-3.05,10-9.34,10.77-4.37.52-8.72,1.14-13.07,1.75-6.61.93-10.74-2-12.11-8.56-1.74-8.29-3.54-16.56-5.29-24.84-.23-1.08-.42-1.86-1.85-2A94.76,94.76,0,0,1,91,220.88c-.28-.13-.59-.21-1-.36-6.26,6.86-12.54,13.67-18.73,20.56-2.31,2.58-5.09,3.94-8.49,3.43A11.38,11.38,0,0,1,58,242.65c-4.31-3-8.47-6.29-12.64-9.53a9.43,9.43,0,0,1-2.19-13q7-10.87,14.12-21.7c.86-1.3,1.07-2.15-.08-3.51A91.46,91.46,0,0,1,41.07,167c-.62-1.71-1.36-2.33-3.21-2.21-8.21.52-16.44.84-24.65,1.36-7.38.47-11.16-2.75-11.86-10.18C1,152.2.46,148.44,0,144.67Zm93.6-5.71a38.84,38.84,0,1,0,38.71-38.85A38.88,38.88,0,0,0,93.6,132.72Z"/><path class="cls-1" d="M417.83,313.29c.16,26.79-22.06,49.56-48.5,49.7-28.17.15-50.57-21.56-50.69-49.13-.12-27.38,21.78-50,48.56-50.07C395.38,263.68,417.68,285.47,417.83,313.29Z"/></svg>