<?xml version="1.0" encoding="utf-8"?>
<!-- Generator: Adobe Illustrator 22.1.0, SVG Export Plug-In . SVG Version: 6.00 Build 0)  -->
<svg version="1.1" id="Capa_1" xmlns="http://www.w3.org/2000/svg" xmlns:xlink="http://www.w3.org/1999/xlink" x="0px" y="0px"
	 viewBox="0 0 490.2 490.2" style="enable-background:new 0 0 490.2 490.2;" xml:space="preserve">
<style type="text/css">
	.st0{fill:#193D8A;}
</style>
<g>
	<path class="st0" d="M469.1,265.9c11.5,0,20.9-9.4,20.9-20.9s-9.4-20.9-20.9-20.9h-59.4V195h59.4c11.5,0,20.9-9.4,20.9-20.9
		s-9.4-20.9-20.9-20.9h-59.4v-51.1c0-11.5-9.4-20.9-20.9-20.9h-52.1V20.9c0-11.5-9.4-20.9-20.9-20.9S295,9.4,295,20.9v60.5h-29.2
		V20.9c0-11.5-9.4-20.9-20.9-20.9S224,9.4,224,20.9v60.5h-28.9V20.9c0-11.5-9.4-20.9-20.9-20.9s-20.9,9.4-20.9,20.9v60.5h-49
		c-11.5,0-20.9,9.4-20.9,20.9v51.1H21c-11.5,0-20.9,9.4-20.9,20.9s9.4,20.9,20.9,20.9h62.6v29.2H21c-11.5,0-20.9,9.4-20.9,20.9
		c0,11.5,9.4,20.9,20.9,20.9h62.6V294H21c-11.5,0-20.9,9.4-20.9,20.9s9.4,20.9,20.9,20.9h62.6v51.1c0,11.5,9.4,20.9,20.9,20.9h49
		v61.5c0,11.5,9.4,20.9,20.9,20.9s20.9-9.4,20.9-20.9v-61.5h29.2v61.5c0,11.5,9.4,20.9,20.9,20.9s20.9-9.4,20.9-20.9v-61.5H295v61.5
		c0,11.5,9.4,20.9,20.9,20.9c10.4,0,19.8-9.4,20.9-20.9v-61.5h52.1c11.5,0,20.9-8.3,20.9-20.9v-51.1h59.4c11.5,0,20.9-9.4,20.9-20.9
		s-9.4-20.9-20.9-20.9h-59.4v-28.1H469.1z M368,367H124V123h244V367z"/>
</g>
</svg>
