<?xml version="1.0" encoding="utf-8"?>
<!-- Generator: Adobe Illustrator 22.1.0, SVG Export Plug-In . SVG Version: 6.00 Build 0)  -->
<svg version="1.1" id="Calque_1" xmlns="http://www.w3.org/2000/svg" xmlns:xlink="http://www.w3.org/1999/xlink" x="0px" y="0px"
	 viewBox="0 0 357.6 501.8" style="enable-background:new 0 0 357.6 501.8;" xml:space="preserve">
<style type="text/css">
	.st0{fill:#193D8A;}
</style>
<title>dashboard-ID</title>
<path class="st0" d="M95,61.9c2.1-6.1,4.1-12,6-17.8c3.5-10.3,7.4-13.2,18.4-13.2c12.7,0,25.3,0,38,0h5.9c0-5.4-0.2-10.4,0.1-15.3
	c0.4-6.8,4-11.6,10.1-14.3c5.7-2.5,11.5-1.8,15.7,2.7c2.6,3.1,4.3,6.8,5,10.8c0.8,5,0.2,10.2,0.2,16h5.7c13,0,26,0,39,0
	c8.6,0,14.5,4.3,17.3,12.4c1.6,4.6,3.4,9.1,4.5,13.7c1,4.1,3.1,4.9,7,4.9c23-0.2,46,0.3,69-0.3c12.5-0.3,20.8,6.5,20.8,20.6
	c-0.3,131.8-0.3,263.6,0,395.4c0.1,19.6-8.5,24-24,24c-104.5-0.3-209-0.3-313.5,0c-11.1,0-20.2-6-20.2-20.2c0.3-134,0.4-268,0.2-402
	c0-11,6.8-17.6,17.8-17.7C43.5,61.9,69,61.9,95,61.9z M326.1,469.3V94.2h-54.9c1.5,5.1,2.9,9.8,4.4,14.6
	c4.3,13.4-2.1,22.6-16.1,22.6c-54.2,0.1-108.3,0.1-162.5,0c-13.8,0-20.3-8.9-16.3-22.3c1.4-4.9,3-9.8,4.6-14.8H32.6v375L326.1,469.3
	z M241,100.2c-3.8-12.2-7.3-23.7-11.1-35c-0.4-1.1-2.8-2.1-4.2-2.1C194.4,63,163.2,63,131.9,63c-2.8,0-4.1,0.8-4.8,3.6
	c-2.1,8.2-4.6,16.3-6.9,24.5c-0.8,2.9-1.6,5.9-2.4,9.1L241,100.2z"/>
<path class="st0" d="M179.3,428.9c-31.2,0-62.3,0-93.5,0c-12.3,0-18.8-6.6-18.5-18.9c1-55.9,44.3-102.2,101.3-108.5
	c63.9-7,122.5,45.2,122.7,109.5c0,11.1-6.5,17.9-17.5,17.9C242.3,428.9,210.8,428.9,179.3,428.9z M256.8,396.6
	c-4.8-29.4-33.8-64.6-79.8-63.7c-36.1,0.8-72.4,31.6-74.9,63.7H256.8z"/>
<path class="st0" d="M233.6,223.4c-0.1,29.6-24.6,54.1-54.2,54.2c-30.1,0.1-54.5-24.1-54.7-54.2s24.1-54.5,54.2-54.7
	s54.5,24.1,54.7,54.2C233.7,223.1,233.7,223.2,233.6,223.4L233.6,223.4z M201.6,223.2c0-12.9-9.4-22.4-22.2-22.4
	c-13,0-22.3,9.3-22.4,22.3c-0.1,12.8,9.5,22.5,22.2,22.5S201.6,236,201.6,223.2L201.6,223.2z"/>
</svg>
