<svg id="Calque_1" data-name="Calque 1" xmlns="http://www.w3.org/2000/svg" viewBox="0 0 1081 1023.22"><defs><style>.cls-1{fill:#fff;}</style></defs><title>calibration</title><path class="cls-1" d="M1079,106H815a137.3,137.3,0,0,0-37-65,141,141,0,0,0-235,65H2l-2,2v65l2,2H543a137.79,137.79,0,0,0,36,65,141,141,0,0,0,236-65h264l2-2V108ZM679,216a75.5,75.5,0,1,1,75.5-75.5A75.5,75.5,0,0,1,679,216Zm400,633H815a137.3,137.3,0,0,0-37-65,141,141,0,0,0-235,65H2l-2,2v65l2,2H543a137.79,137.79,0,0,0,36,65,141,141,0,0,0,236-65h264l2-2V851ZM679,959a75.5,75.5,0,1,1,75.5-75.5A75.5,75.5,0,0,1,679,959Zm400-485H539a138.5,138.5,0,0,0-37-64,141,141,0,0,0-236,64H2c-1,0-2,1-2,3v64c0,2,1,3,2,3H266a138.5,138.5,0,0,0,37,64,141,141,0,0,0,236-64h540c1,0,2-1,2-3V477C1081,475,1080,474,1079,474ZM403,584a75,75,0,1,1,75-75A75,75,0,0,1,403,584Z" transform="translate(0 -0.77)"/></svg>