<?xml version="1.0" encoding="utf-8"?>
<!-- Generator: Adobe Illustrator 22.1.0, SVG Export Plug-In . SVG Version: 6.00 Build 0)  -->
<svg version="1.1" id="Calque_1" xmlns="http://www.w3.org/2000/svg" xmlns:xlink="http://www.w3.org/1999/xlink" x="0px" y="0px"
	 viewBox="0 0 36 32" style="enable-background:new 0 0 36 32;" xml:space="preserve">
<style type="text/css">
	.st0{fill:#FFFFFF;}
</style>
<title>untitled5</title>
<path class="st0" d="M2.2,32H0.1C0.1,32,0,31.9,0,31.9V0.1C0,0.1,0,0,0.1,0h2.1c0.1,0,0.1,0.1,0.1,0.1v31.7C2.3,31.9,2.2,32,2.2,32z
	 M0,31.9v-2.1c0-0.1,0.1-0.1,0.1-0.1l36,0c0.1,0,0.1,0.1,0.1,0.1v2.1c0,0.1-0.1,0.1-0.1,0.1l-36,0C0.1,32,0,31.9,0,31.9z M2.1,31.8
	l-1.8-0.9c-0.1,0-0.1-0.1-0.1-0.2l8.1-16c0-0.1,0.1-0.1,0.2-0.1l1.8,0.9c0.1,0,0.1,0.1,0.1,0.2l-8.1,16C2.3,31.8,2.2,31.9,2.1,31.8z
	 M7.5,16.7l0.8-1.9c0-0.1,0.1-0.1,0.2-0.1l8.7,3.6c0.1,0,0.1,0.1,0.1,0.2l-0.8,1.9c0,0.1-0.1,0.1-0.2,0.1l-8.7-3.6
	C7.5,16.8,7.5,16.8,7.5,16.7z M16.2,20.4l-1.9-0.8c-0.1,0-0.1-0.1-0.1-0.2l4.6-10.9c0-0.1,0.1-0.1,0.2-0.1l1.9,0.8
	C21,9.3,21,9.4,21,9.5l-4.6,10.9C16.4,20.4,16.3,20.5,16.2,20.4L16.2,20.4z M18,10.5l0.8-1.9c0-0.1,0.1-0.1,0.2-0.1l9.3,3.8
	c0.1,0,0.1,0.1,0.1,0.2l-0.8,1.9c0,0.1-0.1,0.1-0.2,0.1l-9.3-3.8C18,10.6,18,10.5,18,10.5z M27.4,14.4l-1.9-0.8
	c-0.1,0-0.1-0.1-0.1-0.2l4.7-11.2c0-0.1,0.1-0.1,0.2-0.1l1.9,0.8c0.1,0,0.1,0.1,0.1,0.2l-4.7,11.2C27.6,14.5,27.5,14.5,27.4,14.4z"
	/>
</svg>
